PathFileType	4	(X/Y/Z)	Walk3.trc
DataRate	CameraRate	NumFrames	NumMarkers	Units	OrigDataRate	OrigDataStartFrame	OrigNumFrames
200.000000	200.000000	5	61	mm	200.000000	483	737
Frame#	Times		LTH3		RCAR		LBHD		RTH2		LWRU		LUA1		LElbow		RTH3		LFA1		LCAR		C7		RPSI		LElbowM		RTB3		RBHD		RASI		RTB1		RTB2		RToe		LTH4		RFA1		RMT5		RWRU		LWRR		LTH2		RLFC		RElbow		RTB4		RMT1		RMMAL		T10		RBack		RLMAL		STRN		LASI		LPSI		CLAV		RCAL		RUA1		RElbowM		LLFC		LFHD		LACR1		LTB3		RFHD		LTB4		LCAL		RACR1		LTB2		LMMAL		RTH1		LTB1		LMT5		LLMAL		RTH4		LMFC		RWRR		RMFC		LTH1		LToe		LMT1
			X1	Y1	Z1	X2	Y2	Z2	X3	Y3	Z3	X4	Y4	Z4	X5	Y5	Z5	X6	Y6	Z6	X7	Y7	Z7	X8	Y8	Z8	X9	Y9	Z9	X10	Y10	Z10	X11	Y11	Z11	X12	Y12	Z12	X13	Y13	Z13	X14	Y14	Z14	X15	Y15	Z15	X16	Y16	Z16	X17	Y17	Z17	X18	Y18	Z18	X19	Y19	Z19	X20	Y20	Z20	X21	Y21	Z21	X22	Y22	Z22	X23	Y23	Z23	X24	Y24	Z24	X25	Y25	Z25	X26	Y26	Z26	X27	Y27	Z27	X28	Y28	Z28	X29	Y29	Z29	X30	Y30	Z30	X31	Y31	Z31	X32	Y32	Z32	X33	Y33	Z33	X34	Y34	Z34	X35	Y35	Z35	X36	Y36	Z36	X37	Y37	Z37	X38	Y38	Z38	X39	Y39	Z39	X40	Y40	Z40	X41	Y41	Z41	X42	Y42	Z42	X43	Y43	Z43	X44	Y44	Z44	X45	Y45	Z45	X46	Y46	Z46	X47	Y47	Z47	X48	Y48	Z48	X49	Y49	Z49	X50	Y50	Z50	X51	Y51	Z51	X52	Y52	Z52	X53	Y53	Z53	X54	Y54	Z54	X55	Y55	Z55	X56	Y56	Z56	X57	Y57	Z57	X58	Y58	Z58	X59	Y59	Z59	X60	Y60	Z60	X61	Y61	Z61

483	2.415	-243.42	616.73	-182.79	-204.02	854.07	302.77	-213.2	1644.5	-146.23	-76.19	743.13	149.86	-33.984	887.53	-321.79	-180.49	1294.7	-318.9	-171.18	1138.4	-348.43	-115.69	633.35	180.05	-103.73	1001.2	-346.66	47.969	876.74	-324.4	-249.84	1519.9	-63.983	-372.7	1031.4	14.231	-210.02	1119.5	-283.4	-83.128	213.61	101.19	-211.57	1657.2	-4.8468	-162.01	1050.1	118.03	-49.136	395.91	113.5	-100.92	303.28	167.1	37.083	63.84	141.09	-233.94	707.23	-198.34	-287.85	1019.8	281.86	-54.312	40.572	180.18	-262.97	885.56	290.79	22.633	924.23	-272.96	-165.48	705.3	-175.9	-99.697	521.53	173.31	-299.61	1169.3	249.91	-64.742	304.15	106.09	-1.4322	52.513	112.93	-98.311	115.6	65.16	-367.45	1302.5	-52.225	-336.36	1445.7	68.653	-144.11	92.898	138.07	-87.626	1249.4	-47.631	-162.39	1037.5	-170.69	-373.58	1028.9	-63.273	-123.52	1424.3	-55.924	-190.36	55.309	80.208	-241.7	1314.1	207.88	-323.67	1151.7	173.83	-263.59	512.95	-169.96	-32.671	1674.7	-106.35	-174.35	1463.3	-221.97	-288.82	192.01	-88.349	-33.251	1680.3	-29.936	-263.31	284.85	-88.933	-417.23	28.859	-81.55	-181.41	1475.6	102.53	-285.46	289.75	-161.17	-329.24	90.995	-45.548	-170.9	816.13	181.93	-238.5	371.1	-93.104	-261.09	19.603	-161.01	-358.66	71.275	-126.57	-139.21	725.57	186.39	-248.94	517.81	-40.489	-201.01	888.11	245	-76.311	531.14	41.283	-221.8	798.82	-213.2	-159.44	29.277	-89.746	-213.03	38.658	-76.167
484	2.42	-241	616.59	-182.69	-202.7	853.56	304.02	-208.42	1644.1	-145.73	-71.729	742.31	149.42	-26.124	888.54	-321.56	-175.24	1294.6	-318.66	-165.27	1138.4	-348.48	-111.21	632.59	179.72	-96.775	1001.7	-346.61	55.931	878.5	-324.37	-245.06	1519.5	-63.509	-368.11	1030.9	14.543	-203.98	1119.2	-283.43	-70.603	213.07	101.64	-206.71	1656.7	-4.3389	-157.33	1049.5	118.31	-41.265	396.22	113.16	-90.33	302.52	167.33	53.725	66.143	141.31	-230.9	707.04	-198.13	-285.63	1019.8	282.59	-36.927	40.771	180.89	-261.44	885.39	291.78	30.28	925.82	-272.93	-162.54	704.69	-175.55	-94.536	520.88	172.95	-296.5	1169.3	250.39	-54.54	304.08	106.14	15.281	53.929	113.39	-83.424	114.57	65.979	-362.78	1302.1	-51.755	-331.61	1445.3	69.014	-128.22	90.919	139.21	-82.993	1248.9	-47.312	-157.97	1037.1	-170.52	-369.1	1028.5	-62.959	-118.78	1423.8	-55.525	-173.87	52.09	81.65	-237.79	1313.8	208.35	-320.27	1151.7	174.17	-261.96	512.87	-169.89	-27.872	1674.2	-105.96	-169.57	1463	-221.48	-288.42	191.9	-88.305	-28.403	1679.7	-29.533	-262.55	284.68	-88.91	-417.2	29.014	-81.539	-176.64	1475	103.04	-284.71	289.67	-161.14	-329.11	91.048	-45.499	-166.23	815.42	181.85	-237.56	370.84	-92.994	-261.14	19.595	-161.05	-358.59	71.403	-126.57	-134.65	724.85	186.12	-247.38	517.69	-40.413	-199.25	887.61	246.34	-71.688	530.5	40.589	-218.17	798.55	-213	-159.43	29.269	-89.78	-213.02	38.652	-76.184
485	2.425	-238.58	616.46	-182.57	-201.31	853.03	305.26	-203.64	1643.6	-145.19	-67.334	741.39	148.99	-18.37	889.52	-321.3	-170.03	1294.5	-318.4	-159.42	1138.3	-348.51	-106.84	631.73	179.38	-89.902	1002.1	-346.53	63.78	880.22	-324.32	-240.28	1519	-63.008	-363.49	1030.3	14.874	-198.01	1118.9	-283.43	-58.195	212.66	102.06	-201.85	1656.1	-3.8032	-152.63	1048.8	118.6	-33.511	396.52	112.79	-79.829	301.83	167.55	70.196	68.594	141.44	-227.87	706.84	-197.91	-283.35	1019.7	283.33	-19.677	41.155	181.54	-259.83	885.21	292.77	37.824	927.36	-272.88	-159.61	704.06	-175.17	-89.491	520.18	172.59	-293.35	1169.2	250.87	-44.458	304.07	106.18	31.82	55.527	113.77	-68.653	113.73	66.77	-358.09	1301.6	-51.255	-326.84	1444.9	69.407	-112.42	89.151	140.34	-78.345	1248.3	-46.97	-153.54	1036.8	-170.34	-364.61	1028.1	-62.624	-114.03	1423.2	-55.099	-157.47	49.123	83.077	-233.85	1313.4	208.84	-316.82	1151.6	174.52	-260.35	512.8	-169.81	-23.071	1673.7	-105.55	-164.79	1462.6	-220.97	-288.02	191.79	-88.259	-23.55	1679.2	-29.104	-261.8	284.52	-88.883	-417.16	29.178	-81.531	-171.86	1474.5	103.58	-283.96	289.59	-161.1	-328.98	91.109	-45.447	-161.6	814.63	181.76	-236.63	370.6	-92.88	-261.19	19.587	-161.09	-358.53	71.536	-126.56	-130.18	724.03	185.83	-245.82	517.6	-40.333	-197.41	887.1	247.66	-67.162	529.78	39.9	-214.53	798.26	-212.79	-159.42	29.26	-89.819	-213.02	38.646	-76.202
486	2.43	-236.17	616.33	-182.44	-199.85	852.49	306.5	-198.86	1643.1	-144.62	-62.998	740.38	148.57	-10.722	890.46	-321.01	-164.86	1294.4	-318.12	-153.63	1138.3	-348.52	-102.57	630.79	179.01	-83.114	1002.5	-346.43	71.514	881.89	-324.23	-235.49	1518.5	-62.479	-358.82	1029.8	15.226	-192.09	1118.6	-283.42	-45.918	212.36	102.47	-196.99	1655.6	-3.2389	-147.9	1048.1	118.9	-25.872	396.83	112.42	-69.433	301.22	167.76	86.463	71.179	141.51	-224.84	706.64	-197.67	-280.98	1019.7	284.07	-2.6029	41.718	182.12	-258.13	885	293.75	45.264	928.87	-272.81	-156.68	703.42	-174.78	-84.553	519.41	172.23	-290.14	1169.1	251.37	-34.504	304.12	106.19	48.157	57.297	114.09	-54.019	113.08	67.53	-353.39	1301.2	-50.726	-322.06	1444.4	69.832	-96.747	87.598	141.43	-73.682	1247.7	-46.607	-149.08	1036.4	-170.17	-360.08	1027.6	-62.268	-109.26	1422.7	-54.645	-141.19	46.414	84.471	-229.87	1313	209.34	-313.32	1151.5	174.89	-258.75	512.74	-169.72	-18.266	1673.1	-105.1	-160.02	1462.3	-220.44	-287.62	191.69	-88.214	-18.692	1678.6	-28.648	-261.05	284.37	-88.853	-417.13	29.355	-81.526	-167.06	1473.9	104.13	-283.22	289.52	-161.06	-328.85	91.181	-45.395	-157.01	813.78	181.68	-235.7	370.36	-92.766	-261.24	19.58	-161.13	-358.47	71.676	-126.55	-125.78	723.14	185.53	-244.27	517.52	-40.252	-195.47	886.58	248.98	-62.726	528.99	39.227	-210.89	797.96	-212.55	-159.41	29.251	-89.864	-213.02	38.64	-76.222
487	2.435	-233.78	616.2	-182.29	-198.3	851.94	307.73	-194.07	1642.5	-144.03	-58.713	739.28	148.17	-3.1795	891.36	-320.68	-159.72	1294.2	-317.81	-147.9	1138.2	-348.5	-98.393	629.77	178.63	-76.411	1002.8	-346.3	79.133	883.51	-324.12	-230.7	1518	-61.922	-354.13	1029.1	15.6	-186.23	1118.2	-283.38	-33.788	212.19	102.86	-192.12	1655	-2.6449	-143.15	1047.4	119.21	-18.348	397.14	112.05	-59.162	300.68	167.95	102.49	73.881	141.52	-221.81	706.43	-197.43	-278.54	1019.6	284.82	14.255	42.45	182.64	-256.36	884.77	294.72	52.599	930.33	-272.71	-153.76	702.77	-174.36	-79.713	518.6	171.85	-286.86	1169	251.89	-24.683	304.24	106.2	64.261	59.223	114.35	-39.542	112.62	68.256	-348.68	1300.7	-50.169	-317.27	1443.9	70.289	-81.226	86.26	142.48	-69.002	1247.2	-46.226	-144.6	1036	-169.99	-355.52	1027.1	-61.887	-104.49	1422.1	-54.165	-125.07	43.967	85.815	-225.85	1312.6	209.87	-309.77	1151.4	175.28	-257.15	512.68	-169.63	-13.457	1672.5	-104.63	-155.25	1461.8	-219.88	-287.21	191.61	-88.17	-13.831	1678	-28.162	-260.32	284.22	-88.819	-417.09	29.545	-81.524	-162.26	1473.2	104.71	-282.49	289.46	-161.02	-328.71	91.262	-45.345	-152.45	812.85	181.59	-234.77	370.14	-92.654	-261.28	19.575	-161.17	-358.41	71.824	-126.55	-121.43	722.17	185.22	-242.72	517.47	-40.169	-193.45	886.04	250.29	-58.374	528.12	38.578	-207.25	797.65	-212.3	-159.4	29.243	-89.914	-213.02	38.635	-76.243
